<?xml version="1.0" encoding="UTF-8" standalone="no"?>
<svg
   id="a"
   width="1091.25"
   height="258"
   viewBox="0 0 1091.25 258"
   version="1.1"
   sodipodi:docname="blobs-banner.svg"
   xml:space="preserve"
   inkscape:export-filename="blobs-banner.png"
   inkscape:export-xdpi="174.18556"
   inkscape:export-ydpi="174.18556"
   inkscape:version="1.2.2 (b0a8486541, 2022-12-01)"
   xmlns:inkscape="http://www.inkscape.org/namespaces/inkscape"
   xmlns:sodipodi="http://sodipodi.sourceforge.net/DTD/sodipodi-0.dtd"
   xmlns="http://www.w3.org/2000/svg"
   xmlns:svg="http://www.w3.org/2000/svg"><defs
     id="defs147"><rect
       x="86.86972"
       y="302.68668"
       width="211.22865"
       height="114.00445"
       id="rect236" /><rect
       x="86.86972"
       y="302.68668"
       width="211.22865"
       height="114.00445"
       id="rect236-3" /><filter
       style="color-interpolation-filters:sRGB;"
       inkscape:label="Drop Shadow"
       id="filter6237"
       x="-0.063891268"
       y="-0.16957639"
       width="1.1747246"
       height="1.3312346"><feFlood
         flood-opacity="0.164706"
         flood-color="rgb(0,0,0)"
         result="flood"
         id="feFlood6227" /><feComposite
         in="flood"
         in2="SourceGraphic"
         operator="in"
         result="composite1"
         id="feComposite6229" /><feGaussianBlur
         in="composite1"
         stdDeviation="4"
         result="blur"
         id="feGaussianBlur6231" /><feOffset
         dx="7.05329"
         dy="-0.470219"
         result="offset"
         id="feOffset6233" /><feComposite
         in="SourceGraphic"
         in2="offset"
         operator="over"
         result="composite2"
         id="feComposite6235" /></filter><filter
       style="color-interpolation-filters:sRGB;"
       inkscape:label="Drop Shadow"
       id="filter6249"
       x="-0.19629668"
       y="-0.28486536"
       width="1.536816"
       height="1.5564292"><feFlood
         flood-opacity="0.164706"
         flood-color="rgb(0,0,0)"
         result="flood"
         id="feFlood6239" /><feComposite
         in="flood"
         in2="SourceGraphic"
         operator="in"
         result="composite1"
         id="feComposite6241" /><feGaussianBlur
         in="composite1"
         stdDeviation="4"
         result="blur"
         id="feGaussianBlur6243" /><feOffset
         dx="7.05329"
         dy="-0.470219"
         result="offset"
         id="feOffset6245" /><feComposite
         in="SourceGraphic"
         in2="offset"
         operator="over"
         result="composite2"
         id="feComposite6247" /></filter><filter
       style="color-interpolation-filters:sRGB;"
       inkscape:label="Drop Shadow"
       id="filter6261"
       x="-0.19976288"
       y="-0.29547586"
       width="1.5462951"
       height="1.5771548"><feFlood
         flood-opacity="0.164706"
         flood-color="rgb(0,0,0)"
         result="flood"
         id="feFlood6251" /><feComposite
         in="flood"
         in2="SourceGraphic"
         operator="in"
         result="composite1"
         id="feComposite6253" /><feGaussianBlur
         in="composite1"
         stdDeviation="4"
         result="blur"
         id="feGaussianBlur6255" /><feOffset
         dx="7.05329"
         dy="-0.470219"
         result="offset"
         id="feOffset6257" /><feComposite
         in="SourceGraphic"
         in2="offset"
         operator="over"
         result="composite2"
         id="feComposite6259" /></filter><filter
       style="color-interpolation-filters:sRGB;"
       inkscape:label="Drop Shadow"
       id="filter6273"
       x="-0.04383564"
       y="-0.14977903"
       width="1.1198781"
       height="1.2925643"><feFlood
         flood-opacity="0.164706"
         flood-color="rgb(0,0,0)"
         result="flood"
         id="feFlood6263" /><feComposite
         in="flood"
         in2="SourceGraphic"
         operator="in"
         result="composite1"
         id="feComposite6265" /><feGaussianBlur
         in="composite1"
         stdDeviation="4"
         result="blur"
         id="feGaussianBlur6267" /><feOffset
         dx="7.05329"
         dy="-0.470219"
         result="offset"
         id="feOffset6269" /><feComposite
         in="SourceGraphic"
         in2="offset"
         operator="over"
         result="composite2"
         id="feComposite6271" /></filter></defs><sodipodi:namedview
     id="namedview145"
     pagecolor="#ffffff"
     bordercolor="#000000"
     borderopacity="0.25"
     inkscape:showpageshadow="2"
     inkscape:pageopacity="0.0"
     inkscape:pagecheckerboard="0"
     inkscape:deskcolor="#d1d1d1"
     showgrid="false"
     inkscape:zoom="0.76"
     inkscape:cx="591.44737"
     inkscape:cy="155.92105"
     inkscape:window-width="1920"
     inkscape:window-height="1008"
     inkscape:window-x="0"
     inkscape:window-y="0"
     inkscape:window-maximized="1"
     inkscape:current-layer="a" /><path
     style="opacity:0.274882;fill:#a3557d;fill-opacity:1;stroke-width:4.42741"
     d="m 653.14291,254.96742 c 0.65081,-5.96612 24.0075,-39.34978 24.04087,-53.62338 0.0527,-22.27595 -43.72666,-92.62367 3.54496,-152.404537 47.27161,-59.780961 212.20469,-53.8584837 259.23933,0 39.62769,45.376893 25.87466,137.423667 -15.53798,163.770377 -41.41272,26.34669 -173.61838,17.28547 -208.564,10.56509 -34.94571,-6.7203 -57.59353,33.79772 -62.72318,31.69245 z"
     id="path4103-2-3-9-5"
     sodipodi:nodetypes="cszszzc" /><g
     aria-label="YOU"
     transform="matrix(0.65153606,0,0,0.65153606,-42.331186,9.8932851)"
     id="text234"
     style="font-size:14.6667px;-inkscape-font-specification:sans-serif;white-space:pre;shape-inside:url(#rect236);display:inline;fill:#a3557d;opacity:0.32464455"><path
       d="m 123.17493,350.32461 0.18749,21.56145 q 0,0.46874 -1.40618,0.93746 -1.40618,0.37498 -3.56232,0.56247 -2.15616,0.18749 -4.68729,0.18749 -2.43737,0.0937 -4.59352,-0.0937 -2.06241,-0.1875 -3.46859,-0.56248 -1.31243,-0.37498 -1.21868,-1.03121 l -0.1875,-20.90523 q -3.0936,-6.46843 -6.187199,-12.09317 -3.093599,-5.71847 -6.1872,-11.1557 -3.093599,-5.53099 -6.1872,-11.15572 -2.999854,-5.62472 -5.905964,-11.99942 -0.281237,-0.74996 0.749963,-1.68742 1.124946,-0.93746 2.90611,-1.78117 1.874909,-0.93744 4.1248,-1.68741 2.249892,-0.84371 4.218547,-1.31244 1.968654,-0.46872 3.374832,-0.46872 1.499931,-0.0937 1.687417,0.37498 l 16.780444,32.34218 q 2.53113,-5.06226 4.49979,-8.71833 1.96865,-3.65606 3.84356,-7.12465 1.87491,-3.46859 3.93731,-7.21839 2.0624,-3.84358 4.78101,-9.09331 0.28124,-0.56248 1.68742,-0.375 1.40618,0.0937 3.2811,0.74997 1.96866,0.56247 4.03106,1.49993 2.15614,0.84371 3.84356,1.8749 1.68741,0.93746 2.62487,1.96866 1.0312,0.93745 0.65622,1.59368 z"
       style="font-size:74.6667px;font-family:'KG Inimitable Original';-inkscape-font-specification:'KG Inimitable Original, Normal';stroke-width:1.28565"
       id="path19557" /><path
       d="m 193.61919,345.14291 q 0,5.97917 -1.09375,10.42709 -1.02083,4.44792 -2.91667,7.65625 -1.82292,3.13542 -4.30208,5.17709 -2.47917,2.04167 -5.32292,3.28125 -2.77084,1.16667 -5.76042,1.67708 -2.98959,0.4375 -5.83334,0.51042 -4.375,0.14583 -9.1875,-0.875 -4.73959,-1.09375 -8.75001,-4.15625 -4.01042,-3.0625 -6.63542,-8.53126 -2.625,-5.46875 -2.84375,-14.21875 -0.21875,-9.47917 2.1875,-15.53126 2.40625,-6.125 6.41667,-9.625 4.08334,-3.57292 9.26042,-4.88542 5.17709,-1.38542 10.42709,-1.38542 5.25,0 9.69792,1.75 4.52084,1.67708 7.72917,5.32292 3.20834,3.64583 5.03126,9.47917 1.89583,5.76042 1.89583,13.92709 z m -38.28127,1.89583 q 0.14584,3.13542 1.16667,5.76042 1.09375,2.625 2.77083,4.59376 1.67709,1.89583 3.79167,2.98958 2.11459,1.02083 4.44792,1.02083 1.82292,0 3.86459,-0.72916 2.04166,-0.72917 3.71875,-2.47917 1.75,-1.75 2.91667,-4.73959 1.16666,-2.98958 1.16666,-7.51042 0,-4.95833 -0.80208,-8.38542 -0.80208,-3.42708 -2.33333,-5.61458 -1.45834,-2.1875 -3.50001,-3.20834 -2.04166,-1.02083 -4.44791,-1.09375 -3.06251,-0.0729 -5.54167,1.38542 -2.40626,1.45833 -4.08334,4.08333 -1.67708,2.62501 -2.55208,6.27084 -0.80209,3.57292 -0.58334,7.65625 z"
       style="font-size:74.6667px;font-family:'KG Inimitable Original';-inkscape-font-specification:'KG Inimitable Original, Normal'"
       id="path19559" /><path
       d="m 219.4317,359.21583 q 1.60417,0.0729 2.625,-1.16666 1.09375,-1.23959 1.67708,-3.35417 0.58334,-2.11459 0.80209,-4.88542 0.21875,-2.84375 0.21875,-5.90625 0.0729,-6.63542 0,-13.48959 -0.0729,-6.85417 -0.51042,-13.78126 -0.0729,-0.58333 0.875,-0.94792 1.02083,-0.36458 2.47917,-0.51041 1.45833,-0.14584 3.13542,-0.0729 1.75,0 3.20833,0.21875 1.53125,0.21875 2.55209,0.58333 1.02083,0.36459 1.09375,0.80209 0.80208,6.92708 1.02083,14.07292 0.29167,7.07292 0,14.43751 -0.0729,2.47916 -0.29167,5.54167 -0.21875,3.0625 -0.875,6.19792 -0.65625,3.13541 -1.96875,6.125 -1.23958,2.91667 -3.5,5.17708 -2.26042,2.26042 -5.61459,3.57292 -3.35416,1.3125 -8.16667,1.16667 -4.8125,-0.14583 -8.3125,-1.45833 -3.5,-1.38542 -5.83334,-4.66667 -2.33333,-3.28125 -3.64583,-8.75001 -1.23959,-5.54167 -1.53125,-14 -0.29167,-6.85417 -0.29167,-13.78126 0.0729,-7 0.65625,-14.65626 0,-0.29166 1.02084,-0.4375 1.09375,-0.21875 2.625,-0.29166 1.60416,-0.0729 3.35416,0 1.82292,0 3.35417,0.14583 1.60417,0.14583 2.625,0.51042 1.02084,0.29166 1.02084,0.72916 0,7.00001 -0.21875,13.92709 -0.14584,6.92709 0.0729,14.29168 0.0729,2.98958 0.4375,5.6875 0.36459,2.625 1.09376,4.59375 0.72916,1.96875 1.89583,3.13542 1.16667,1.16667 2.91667,1.23958 z"
       style="font-size:74.6667px;font-family:'KG Inimitable Original';-inkscape-font-specification:'KG Inimitable Original, Normal'"
       id="path19561" /></g><path
     style="opacity:0.31990521;fill:#a3557d;fill-opacity:1;stroke-width:0.695201"
     d="m 114.15061,253.53708 c 0.0245,-1.93816 1.29891,1.23649 2.59872,-2.64038 1.10983,-3.3102 -4.92073,-16.59041 0.55768,-23.88624 5.47839,-7.29583 32.85569,-7.94818 40.78215,0 8.51278,8.53611 5.08285,21.05342 -2.75962,25.6676 -7.84246,4.61418 -25.45678,5.58167 -41.17893,0.85902 z"
     id="path4103"
     sodipodi:nodetypes="cszszc" /><g
     aria-label="th"
     transform="matrix(0.65153606,0,0,0.65153606,63.670564,25.683876)"
     id="text234-6"
     style="font-size:14.6667px;-inkscape-font-specification:sans-serif;white-space:pre;shape-inside:url(#rect236-3);display:inline;fill:#a3557d;opacity:1"><path
       d="m 94.682927,309.72179 q -0.04156,-0.20781 0.540315,-0.3325 0.581878,-0.12469 1.496257,-0.20781 0.91438,-0.0831 1.99501,-0.0831 1.122192,0 2.036571,0.0831 0.95594,0.0416 1.57938,0.20781 0.62344,0.12469 0.66501,0.3325 0.0416,3.24189 0.0416,7.60598 0.0416,4.32252 0.0831,8.89441 0.0416,4.5719 0.0416,8.89442 0.0416,4.32252 0.0831,7.56441 -0.0831,0.16625 -0.74813,0.29094 -0.62344,0.0831 -1.53782,0.12469 -0.91438,0.0831 -1.995005,0.0831 -1.039067,0 -1.953447,-0.0831 -0.914379,-0.0831 -1.537819,-0.24938 -0.623441,-0.16625 -0.623441,-0.41563 z M 109.313,324.89218 q 0.24937,0 0.41562,0.62344 0.16625,0.58187 0.24938,1.49625 0.0831,0.91438 0.0831,1.99501 0.0416,1.03907 -0.0416,1.99501 -0.0416,0.91438 -0.16625,1.57938 -0.0831,0.62345 -0.24938,0.70657 -3.24189,0 -5.73565,-0.0416 -2.49376,-0.0416 -4.862832,-0.0416 -2.369074,-0.0416 -4.904398,-0.0831 -2.493762,-0.0416 -5.735652,-0.0416 -0.207814,0 -0.374065,-0.62344 -0.124688,-0.66501 -0.207813,-1.57939 -0.04156,-0.95594 -0.04156,-2.03657 0,-1.12219 0.04156,-2.03657 0.08313,-0.91438 0.207813,-1.49626 0.124688,-0.58187 0.332502,-0.54031 z"
       style="font-size:42.5602px;font-family:'KG Inimitable Original';-inkscape-font-specification:'KG Inimitable Original, Normal';fill:#ffffff;opacity:1"
       id="path19564" /><path
       d="m 111.93145,309.97117 q 0,-0.20781 0.58187,-0.37407 0.62344,-0.16625 1.49626,-0.24937 0.91438,-0.0831 1.95345,-0.0831 1.08063,0 1.95344,0.0416 0.91438,0.0416 1.49626,0.16625 0.62344,0.12468 0.62344,0.3325 l 0.0416,9.55942 q 1.49626,-1.12219 3.15877,-1.53782 1.70407,-0.45719 3.1172,-0.41563 1.53782,0.0416 2.86783,0.54032 1.37157,0.49875 2.4522,1.62094 1.12219,1.08063 1.91188,2.82626 0.83125,1.70408 1.28844,4.19784 0.29094,1.57938 0.49876,3.61595 0.20781,1.99501 0.29093,4.11471 0.12469,2.1197 0.12469,4.15627 0.0416,2.03657 -0.0831,3.61595 -0.0416,0.29094 -0.66501,0.49875 -0.62344,0.20782 -1.53782,0.33251 -0.91438,0.0831 -1.99501,0.12468 -1.08063,0 -1.995,-0.0831 -0.91438,-0.12469 -1.53782,-0.3325 -0.58188,-0.24938 -0.58188,-0.62344 -0.12469,-3.74065 -0.24938,-6.31753 -0.12469,-2.61845 -0.29094,-4.36409 -0.16625,-1.74563 -0.41562,-2.74313 -0.20782,-0.99751 -0.49876,-1.49626 -0.29094,-0.49875 -0.70656,-0.62344 -0.37407,-0.12469 -0.87282,-0.16625 -1.37157,-0.0831 -2.53532,0.74813 -1.1222,0.83125 -1.70407,2.82626 0,1.66251 0,2.7847 0,1.12219 0,1.95345 0,0.83125 -0.0416,1.53782 0,0.665 -0.0416,1.49625 0,0.83126 0,1.95345 0,1.08063 0,2.70158 -0.0831,0.24937 -0.70657,0.41562 -0.58187,0.16625 -1.45469,0.24938 -0.87282,0.0416 -1.91188,0.0416 -0.99751,0 -1.87032,-0.0831 -0.83126,-0.12469 -1.4547,-0.24938 -0.58188,-0.16625 -0.58188,-0.37406 z"
       style="font-size:42.5602px;font-family:'KG Inimitable Original';-inkscape-font-specification:'KG Inimitable Original, Normal';fill:#ffffff;opacity:1"
       id="path19566" /></g><g
     aria-label="CARE"
     id="text2834"
     style="font-size:118.361px;font-family:'KG Inimitable Original';-inkscape-font-specification:'KG Inimitable Original, Normal';fill:#fec046;stroke-width:1.58518;opacity:1"
     transform="matrix(0.58279195,0,0,0.58279195,-45.378439,108.77837)"><path
       d="m 403.99314,224.44991 q 0.89446,-1.7076 2.43943,-2.2768 1.62629,-0.65052 3.4152,-0.48789 1.87024,0.16263 3.74047,0.97577 1.87023,0.81315 3.25257,1.95155 1.38234,1.1384 2.03286,2.52074 0.73183,1.30103 0.32526,2.52075 -1.87023,5.44806 -5.12281,8.86326 -3.25257,3.33389 -7.15566,5.20412 -3.90309,1.78892 -8.21275,2.35812 -4.22835,0.5692 -8.13144,0.32526 -4.79754,-0.24395 -9.43246,-2.11418 -4.63492,-1.95154 -8.29407,-5.61069 -3.65914,-3.65914 -6.01726,-9.10721 -2.35812,-5.44806 -2.52074,-12.92898 0.16262,-10.00166 2.68337,-16.9947 2.52074,-6.99303 6.74909,-11.38401 4.30966,-4.47229 10.00167,-6.50515 5.77332,-2.03286 12.52241,-1.95154 5.93595,0.0813 9.92035,2.52074 3.9844,2.35812 6.42383,5.93595 2.43943,3.57783 3.57783,7.88749 1.13841,4.30966 1.54498,8.13144 0.0813,1.21971 -1.1384,2.19549 -1.1384,0.89445 -3.00863,1.46366 -1.87023,0.5692 -4.14704,0.81314 -2.19548,0.24394 -4.06571,0.0813 -1.87023,-0.16263 -3.08995,-0.65051 -1.21972,-0.5692 -1.05709,-1.46366 0.32526,-2.11417 -0.24394,-4.14703 -0.48789,-2.03286 -1.46366,-3.57783 -0.97577,-1.54498 -2.2768,-2.43943 -1.21972,-0.97578 -2.35812,-0.97578 -3.4152,0.0813 -6.01726,1.95155 -2.60206,1.87023 -4.30966,4.96017 -1.7076,3.00863 -2.60206,6.91172 -0.81314,3.90309 -0.65051,8.13144 0.0813,2.92732 1.05708,5.44806 0.97578,2.43943 2.52075,4.30966 1.62628,1.87023 3.65914,2.92732 2.11418,0.97577 4.47229,0.97577 1.46366,0 2.84601,-0.0813 1.38234,-0.0813 2.68337,-0.65052 1.38234,-0.65051 2.68337,-1.95154 1.38235,-1.38235 2.76469,-4.06572 z"
       style="font-size:83.2659px;opacity:0.32464455"
       id="path19569" /><path
       d="m 480.34732,243.39615 q 0.24394,0.97578 -0.81314,1.78892 -0.97577,0.73183 -2.68338,1.21972 -1.62628,0.40657 -3.74046,0.48788 -2.11417,0.16263 -3.9844,-0.0813 -1.87023,-0.16263 -3.33389,-0.65052 -1.38234,-0.5692 -1.7076,-1.54497 -0.65051,-1.87023 -1.21971,-3.74046 -0.48789,-1.87023 -0.89446,-3.82178 H 438.3078 q -0.40657,1.87023 -0.89446,3.74046 -0.48788,1.87023 -1.05708,3.82178 -0.32526,0.89446 -1.62629,1.46366 -1.30103,0.5692 -3.08995,0.81314 -1.7076,0.24394 -3.74046,0.0813 -1.95154,-0.0813 -3.57783,-0.5692 -1.54497,-0.48789 -2.52074,-1.38235 -0.89446,-0.89446 -0.5692,-2.19549 l 16.01892,-57.89582 q 0.16263,-1.62628 2.11418,-2.68337 2.03286,-1.05709 4.87886,-1.54497 2.92731,-0.48789 6.2612,-0.48789 3.41521,0 6.26121,0.40657 2.92732,0.40657 4.87886,1.21972 2.03286,0.81314 2.2768,1.95154 z M 442.2922,221.44128 h 15.61236 l -7.72486,-26.0206 z"
       style="font-size:83.2659px;opacity:0.32464455"
       id="path19571" /><path
       d="m 487.0151,182.81696 q 0,-0.97577 1.21971,-1.54497 1.21972,-0.5692 3.00863,-0.81315 1.87023,-0.32525 3.90309,-0.24394 2.11417,0 3.90309,0.24394 1.87023,0.24395 3.00863,0.73183 1.21972,0.48789 1.21972,1.05709 v 1.87023 q 4.22834,-2.76469 9.35115,-3.25258 5.20412,-0.5692 9.67641,1.21972 4.5536,1.7076 7.56223,5.77332 3.08995,4.06572 3.08995,10.48955 0,2.92732 -0.32526,6.01726 -0.32526,3.00863 -1.87023,6.26121 -1.46366,3.25257 -4.55361,6.66778 -3.00863,3.33388 -8.45669,6.91172 2.11418,1.38234 3.98441,2.68337 1.95154,1.30103 3.74046,2.60206 1.87023,1.30103 3.65914,2.68337 1.87023,1.38235 3.90309,2.92732 0.5692,0.40657 0.24394,1.62629 -0.24394,1.1384 -0.97577,2.60206 -0.73183,1.46365 -1.87023,3.00863 -1.05709,1.54497 -2.2768,2.68337 -1.21972,1.05709 -2.43943,1.46366 -1.1384,0.48789 -2.03286,-0.16263 -3.17126,-2.35812 -6.42383,-4.79755 -3.25258,-2.43943 -6.1799,-4.5536 -2.846,-2.19549 -5.1228,-3.9844 -2.2768,-1.78892 -3.49652,-2.92732 0,3.08995 0,6.58646 0.0813,3.49652 0.0813,6.58647 0.0813,1.05708 -1.1384,1.78891 -1.1384,0.73183 -3.00863,1.1384 -1.87023,0.40657 -4.14704,0.48789 -2.19548,0.0813 -4.06571,-0.24394 -1.87023,-0.32526 -3.17126,-0.97578 -1.21972,-0.73183 -1.21972,-1.87023 z m 15.77498,33.82677 q 1.7076,-0.5692 4.5536,-1.87023 2.84601,-1.38234 5.44807,-3.4152 2.60206,-2.11418 4.14703,-5.04149 1.62629,-2.92732 0.81314,-6.74909 -0.40657,-1.95155 -2.2768,-2.68338 -1.78892,-0.73183 -4.14703,-0.40657 -2.35812,0.24394 -4.79755,1.46366 -2.35812,1.21971 -3.90309,3.08994 z"
       style="font-size:83.2659px;opacity:0.32464455"
       id="path19573" /><path
       d="m 538.81234,184.68719 q 0,-1.54497 1.7076,-2.2768 1.78892,-0.73183 4.14704,-0.89446 2.35811,-0.24394 4.87886,-0.16263 2.52074,0.0813 4.14703,0.0813 l 27.40294,0.16262 q 0.81314,0 1.30103,1.13841 0.5692,1.05708 0.73183,2.68337 0.24394,1.54497 0.16262,3.49652 -0.0813,1.87023 -0.40657,3.49651 -0.24394,1.54498 -0.73183,2.60206 -0.48788,1.05709 -1.1384,0.97577 -1.21971,-0.0813 -3.33389,-0.16262 -2.11417,-0.0813 -4.71623,-0.0813 -2.60206,0 -5.36675,0.0813 -2.76468,0 -5.36674,0 -2.60206,0 -4.79755,0.0813 -2.19549,0 -3.49652,0 0,2.43943 0,3.57783 0,1.1384 0,1.7076 0.0813,0.48789 0,0.73183 0,0.24395 0,0.81315 0.0813,0.48788 0.0813,1.7076 0,1.1384 0,3.57783 1.95154,0 4.87886,0.0813 2.92731,0.0813 6.01726,0.16263 3.08995,0 6.01726,0.0813 3.00863,0 4.96018,-0.16263 0.65051,-0.0813 1.05708,1.05708 0.48789,1.05709 0.73183,2.68338 0.24395,1.62629 0.24395,3.57783 0,1.87023 -0.24395,3.49652 -0.24394,1.62628 -0.73183,2.76469 -0.48788,1.05708 -1.30103,1.05708 h -21.62961 q 0,1.95155 0,2.76469 0.0813,0.81314 0.0813,1.1384 0,0.24394 0,0.32526 0,0 0,0.32526 0,0.32525 0,1.21971 0.0813,0.81314 0.0813,2.76469 2.43944,0 6.01727,0 3.57783,0 7.3996,0 3.82178,0 7.39961,0.0813 3.57783,0 6.01726,0.0813 0.65052,0 1.1384,1.1384 0.48789,1.1384 0.73183,2.76469 0.24395,1.62628 0.24395,3.57783 0,1.95154 -0.24395,3.57783 -0.24394,1.62629 -0.81314,2.76469 -0.48789,1.1384 -1.30103,1.1384 -2.11417,0.0813 -6.09858,0.0813 -3.90309,0 -8.29406,-0.0813 -4.30966,0 -8.29407,-0.0813 -3.9844,0 -6.09857,0 -2.11418,0 -4.39098,0 -2.2768,0.0813 -4.14703,0 -1.87023,-0.16263 -3.08995,-0.65052 -1.21971,-0.48789 -1.21971,-1.46366 z"
       style="font-size:83.2659px;opacity:0.32464455"
       id="path19575" /></g><path
     style="opacity:0.16587678;fill:#a3557d;fill-opacity:1;stroke-width:1.07687"
     d="m 314.2575,252.7731 c 0.15859,-1.44843 5.85022,-9.55317 5.85835,-13.01845 0.0128,-5.40807 -10.65544,-22.48679 0.86384,-37.00014 11.51928,-14.51337 51.71064,-13.07554 63.17218,0 9.65659,11.01641 6.30521,33.36314 -3.78634,39.75948 -10.09157,6.39634 -42.30782,4.1965 -50.82347,2.56495 -8.51567,-1.63153 -14.03455,8.20527 -15.28456,7.69416 z"
     id="path4103-2-3-9"
     sodipodi:nodetypes="cszszzc" /><path
     style="opacity:0.822275;fill:#36965c;fill-opacity:0.239216;stroke-width:1.23235"
     d="m 660.61568,254.26339 c 0.1815,-1.65757 6.69486,-10.93245 6.70415,-14.89804 0.0155,-6.18885 -12.19385,-25.73339 0.98857,-42.34214 13.1824,-16.60877 59.17651,-14.96332 72.29284,0 11.05078,12.60695 7.21553,38.18004 -4.33301,45.49988 -11.54857,7.31983 -48.41611,4.80239 -58.16125,2.9353 -9.74513,-1.86711 -16.06081,9.38988 -17.4913,8.805 z"
     id="path4103-2-3-9-2-9-9"
     sodipodi:nodetypes="cszszzc" /><path
     style="opacity:0.83649289;fill:#fdc244;fill-opacity:0.63529414;stroke-width:1.59559"
     d="m 369.02637,179.74856 c 0.23494,-2.14613 8.6682,-14.15482 8.68024,-19.28928 0.0188,-8.01305 -15.78803,-33.31839 1.27994,-54.82264 17.06798,-21.504262 76.61903,-19.373837 93.60142,0 14.30803,16.32288 9.34234,49.43376 -5.61018,58.91114 -14.95253,9.47738 -62.68693,6.21789 -75.30449,3.80047 -12.61755,-2.41743 -20.79481,12.15759 -22.64693,11.40031 z"
     id="path4103-2-3-9-2"
     sodipodi:nodetypes="cszszzc" /><path
     style="opacity:0.336493;fill:#a3557d;fill-opacity:1;stroke-width:1.59559"
     d="m 106.96209,206.43775 c 0.23494,-2.14613 8.6682,-14.15482 8.68025,-19.28928 0.0188,-8.01305 -15.78803,-33.31839 1.27994,-54.82264 17.06797,-21.50426 76.61902,-19.37383 93.60141,0 14.30804,16.32288 9.34235,49.43376 -5.61018,58.91114 -14.95254,9.47738 -62.68693,6.21789 -75.30448,3.80047 -12.61755,-2.41743 -20.79481,12.15759 -22.64694,11.40031 z"
     id="path4103-2-3-9-2-8"
     sodipodi:nodetypes="cszszzc" /><path
     style="opacity:0.473934;fill:#38955c;fill-opacity:0.501961;stroke-width:3.82724"
     d="m 117.63925,206.12531 c 0.59474,-4.87769 21.94337,-32.17085 21.97388,-43.84036 0.0476,-18.21193 -39.967087,-75.725488 3.24012,-124.599982 43.20725,-48.874552 193.95952,-44.0325567 236.95011,0 36.22048,37.098367 23.64993,112.352222 -14.20208,133.892252 -37.85204,21.54005 -158.69066,14.13193 -190.63176,8.63764 -31.94106,-5.49427 -52.64164,27.63159 -57.33027,25.91045 z"
     id="path4103-2-3-9-2-8-6"
     sodipodi:nodetypes="cszszzc" /><path
     style="opacity:1;fill:#e6cedc;fill-opacity:1;stroke-width:0.951078"
     d="m 1007.2102,252.90342 c 0.1369,-1.30866 5.0508,-8.63127 5.0577,-11.76215 0.011,-4.88617 -9.1993,-20.31678 0.7458,-33.42957 9.945,-13.11281 44.6436,-11.81372 54.5388,0 8.3369,9.95331 5.4435,30.14356 -3.2689,35.92264 -8.7125,5.77909 -36.5258,3.79153 -43.8777,2.31744 -7.3518,-1.47409 -12.1165,7.41342 -13.1957,6.95164 z"
     id="path4103-2-3-9-2-8-6-8"
     sodipodi:nodetypes="cszszzc" /><path
     style="opacity:0.85545;fill:#a4547c;fill-opacity:0.27451;stroke-width:0.859421"
     d="m 97.48442,205.86489 c -0.1237,-1.18254 -4.564,-7.79946 -4.5703,-10.62861 -0.01,-4.41528 8.3128,-18.35881 -0.6739,-30.20789 -8.986597,-11.8491 -40.341197,-10.67521 -49.282796,0 -7.53342,8.99409 -4.91892,27.23856 2.953899,32.4607 7.8728,5.22215 33.0057,3.42613 39.6491,2.0941 6.643297,-1.33203 10.948797,6.69898 11.923997,6.2817 z"
     id="path4103-2-3-9-2-8-6-8-3"
     sodipodi:nodetypes="cszszzc" /><path
     style="opacity:0.900474;fill:#fec145;fill-opacity:0.705882;stroke-width:4.54188"
     d="m 653.36869,255.14187 c -0.68226,-5.98809 -25.1724,-39.49444 -25.20745,-53.82048 -0.0549,-22.3578 45.84849,-92.96415 -3.71694,-152.964755 -49.56534,-60.00069 -222.50165,-54.0564164 -271.81844,0 -41.5506,45.543685 -27.1303,137.928835 16.29185,164.372385 43.42213,26.44356 182.04287,17.34901 218.68434,10.60398 36.64129,-6.74506 60.38808,33.9218 65.76664,31.80887 z"
     id="path4103-2-3-9-2-2"
     sodipodi:nodetypes="cszszzc" /><path
     style="opacity:1;fill:#36965c;fill-opacity:0.239216;stroke-width:0.509543"
     d="m 621.64438,255.39056 c -0.075,-0.68534 -2.76814,-4.52026 -2.77199,-6.15991 -0.006,-2.55893 5.04182,-10.64004 -0.40874,-17.5073 -5.45055,-6.86726 -24.46784,-6.18693 -29.89107,0 -4.5692,5.21262 -2.98342,15.78639 1.79157,18.81293 4.77501,3.02654 20.01873,1.98564 24.04806,1.21366 4.02934,-0.77199 6.6407,3.88246 7.23217,3.64062 z"
     id="path4103-2-3-9-22"
     sodipodi:nodetypes="cszszzc" /><path
     style="fill:#36965c;fill-opacity:0.239216;stroke-width:1.81391"
     d="m 1004.4025,254.60043 c -0.267,-2.43972 -9.85423,-16.09153 -9.86783,-21.92846 -0.036,-9.10946 17.94803,-37.87714 -1.4549,-62.32368 -19.40339,-24.44653 -87.10239,-22.02465 -106.40837,0 -16.26575,18.55624 -10.62058,56.19747 6.37775,66.97155 16.99841,10.77408 71.26407,7.06861 85.60784,4.32047 14.34418,-2.74819 23.63981,13.82104 25.74551,12.96012 z"
     id="path4103-2-3-9-22-7"
     sodipodi:nodetypes="cszszzc" /><path
     style="fill:#fec145;fill-opacity:0.705882;stroke-width:0.608608"
     d="m 1000.8401,254.66769 c -0.09,-0.81859 -3.30661,-5.39909 -3.31121,-7.35753 -0.01,-3.05643 6.02231,-12.70868 -0.48823,-20.91107 -6.51074,-8.2024 -29.22582,-7.38979 -35.70344,0 -5.45754,6.22606 -3.56346,18.85558 2.13989,22.47055 5.70337,3.61496 23.91097,2.37169 28.72406,1.44961 4.81309,-0.92208 7.93243,4.6373 8.63893,4.34844 z"
     id="path4103-2-3-9-22-9"
     sodipodi:nodetypes="cszszzc" /><path
     style="opacity:1;fill:#c5e5d2;fill-opacity:1;stroke-width:1.2091"
     d="m 88.017235,206.44016 c -0.178035,-1.62629 -6.568583,-10.72623 -6.57771,-14.61702 -0.01421,-6.07212 11.963846,-25.24798 -0.969916,-41.54345 -12.933754,-16.29549 -58.06031,-14.6811 -70.9292127,0 -10.8423271,12.36913 -7.0794303,37.45988 4.2512787,44.64163 11.330724,7.18177 47.502855,4.71179 57.064177,2.87992 9.561316,-1.83188 15.757872,9.21277 17.161383,8.63892 z"
     id="path4103-2-3-9-2-8-7"
     sodipodi:nodetypes="cszszzc" /><path
     style="opacity:0.71090047;fill:#c5e5d2;fill-opacity:1;stroke-width:0.507992"
     d="m 1004.3302,254.7955 c 0.075,-0.68328 2.7597,-4.50654 2.7636,-6.14123 0.01,-2.55116 -5.0266,-10.60776 0.4074,-17.45417 5.4341,-6.84643 24.3936,-6.16816 29.8004,0 4.5553,5.19679 2.9744,15.73848 -1.7861,18.75585 -4.7606,3.01736 -19.958,1.97961 -23.9751,1.20997 -4.0171,-0.76965 -6.6206,3.87067 -7.2102,3.62958 z"
     id="path4103-2-3-9-2-8-7-6"
     sodipodi:nodetypes="cszszzc" /></svg>
