<?xml version="1.0" encoding="UTF-8" standalone="no"?>
<svg
   id="a"
   width="1091.25"
   height="258"
   viewBox="0 0 1091.25 258"
   version="1.1"
   sodipodi:docname="blobs-banner.svg"
   xml:space="preserve"
   inkscape:export-filename="blobs-banner.png"
   inkscape:export-xdpi="174.18556"
   inkscape:export-ydpi="174.18556"
   inkscape:version="1.2.2 (b0a8486541, 2022-12-01)"
   xmlns:inkscape="http://www.inkscape.org/namespaces/inkscape"
   xmlns:sodipodi="http://sodipodi.sourceforge.net/DTD/sodipodi-0.dtd"
   xmlns="http://www.w3.org/2000/svg"
   xmlns:svg="http://www.w3.org/2000/svg"><defs
     id="defs147"><rect
       x="86.86972"
       y="302.68668"
       width="211.22865"
       height="114.00445"
       id="rect236" /><rect
       x="86.86972"
       y="302.68668"
       width="211.22865"
       height="114.00445"
       id="rect236-3" /></defs><sodipodi:namedview
     id="namedview145"
     pagecolor="#ffffff"
     bordercolor="#000000"
     borderopacity="0.25"
     inkscape:showpageshadow="2"
     inkscape:pageopacity="0.0"
     inkscape:pagecheckerboard="0"
     inkscape:deskcolor="#d1d1d1"
     showgrid="false"
     inkscape:zoom="0.54"
     inkscape:cx="408.33333"
     inkscape:cy="147.22222"
     inkscape:window-width="1920"
     inkscape:window-height="1008"
     inkscape:window-x="0"
     inkscape:window-y="0"
     inkscape:window-maximized="1"
     inkscape:current-layer="a" /><path
     style="opacity:0.341232;fill:#fdc244;fill-opacity:0.635294;stroke-width:1.59559"
     d="m 586.25579,254.85967 c 0.23494,-2.14613 8.6682,-14.15482 8.68024,-19.28928 0.0188,-8.01305 -15.78803,-33.31839 1.27994,-54.82264 17.06798,-21.50426 76.61903,-19.37384 93.60142,0 14.30803,16.32288 9.34234,49.43376 -5.61018,58.91114 -14.95253,9.47738 -62.68693,6.21789 -75.30449,3.80047 -12.61755,-2.41743 -20.79481,12.15759 -22.64693,11.40031 z"
     id="path4103-2-3-9-2-9"
     sodipodi:nodetypes="cszszzc" /><path
     style="opacity:0.327014;fill:#38955c;fill-opacity:0.501961;stroke-width:2.75135"
     d="m 107.37384,221.20935 c -0.40512,-3.70067 -14.947,-24.40784 -14.96778,-33.26144 -0.0324,-13.81729 27.22407,-57.45251 -2.20706,-94.533332 -29.431126,-37.080838 -132.117907,-33.407234 -161.401465,0 -24.672029,28.146332 -16.109449,85.241032 9.673906,101.583332 25.783389,16.34231 108.094113,10.72181 129.851179,6.55334 21.75706,-4.1685 35.8575,20.96392 39.05122,19.6581 z"
     id="path4103-2-3-9-2-8-7"
     sodipodi:nodetypes="cszszzc" /><g
     aria-label="YOU"
     transform="matrix(1.1179565,0,0,1.1179565,5.228708,-169.67478)"
     id="text234"
     style="font-size:14.6667px;-inkscape-font-specification:sans-serif;white-space:pre;shape-inside:url(#rect236);display:inline;fill:#a3557d"><path
       d="m 122.30666,355.49708 0.14583,16.77084 q 0,0.36459 -1.09375,0.72917 -1.09375,0.29167 -2.77083,0.4375 -1.67709,0.14583 -3.64584,0.14583 -1.89583,0.0729 -3.57292,-0.0729 -1.60417,-0.14584 -2.69792,-0.4375 -1.02083,-0.29167 -0.94791,-0.80209 l -0.14584,-16.26042 q -2.40625,-5.03125 -4.8125,-9.40626 -2.40625,-4.44791 -4.812501,-8.67708 -2.406251,-4.30209 -4.812502,-8.67709 -2.333334,-4.375 -4.593752,-9.33334 -0.21875,-0.58333 0.583333,-1.3125 0.875001,-0.72917 2.260418,-1.38542 1.458334,-0.72916 3.208335,-1.3125 1.750001,-0.65625 3.281252,-1.02083 1.53125,-0.36458 2.624997,-0.36458 1.16667,-0.0729 1.3125,0.29166 l 13.05209,25.15626 q 1.96875,-3.9375 3.50001,-6.78125 1.53125,-2.84375 2.98958,-5.54167 1.45833,-2.69792 3.0625,-5.61458 1.60417,-2.98959 3.71875,-7.07292 0.21875,-0.4375 1.3125,-0.29167 1.09375,0.0729 2.55209,0.58333 1.53125,0.4375 3.13542,1.16667 1.67708,0.65625 2.98958,1.45833 1.3125,0.72917 2.04167,1.53125 0.80208,0.72917 0.51042,1.23959 z"
       style="font-size:74.6667px;font-family:'KG Inimitable Original';-inkscape-font-specification:'KG Inimitable Original, Normal'"
       id="path19557" /><path
       d="m 193.61919,345.14291 q 0,5.97917 -1.09375,10.42709 -1.02083,4.44792 -2.91667,7.65625 -1.82292,3.13542 -4.30208,5.17709 -2.47917,2.04167 -5.32292,3.28125 -2.77084,1.16667 -5.76042,1.67708 -2.98959,0.4375 -5.83334,0.51042 -4.375,0.14583 -9.1875,-0.875 -4.73959,-1.09375 -8.75001,-4.15625 -4.01042,-3.0625 -6.63542,-8.53126 -2.625,-5.46875 -2.84375,-14.21875 -0.21875,-9.47917 2.1875,-15.53126 2.40625,-6.125 6.41667,-9.625 4.08334,-3.57292 9.26042,-4.88542 5.17709,-1.38542 10.42709,-1.38542 5.25,0 9.69792,1.75 4.52084,1.67708 7.72917,5.32292 3.20834,3.64583 5.03126,9.47917 1.89583,5.76042 1.89583,13.92709 z m -38.28127,1.89583 q 0.14584,3.13542 1.16667,5.76042 1.09375,2.625 2.77083,4.59376 1.67709,1.89583 3.79167,2.98958 2.11459,1.02083 4.44792,1.02083 1.82292,0 3.86459,-0.72916 2.04166,-0.72917 3.71875,-2.47917 1.75,-1.75 2.91667,-4.73959 1.16666,-2.98958 1.16666,-7.51042 0,-4.95833 -0.80208,-8.38542 -0.80208,-3.42708 -2.33333,-5.61458 -1.45834,-2.1875 -3.50001,-3.20834 -2.04166,-1.02083 -4.44791,-1.09375 -3.06251,-0.0729 -5.54167,1.38542 -2.40626,1.45833 -4.08334,4.08333 -1.67708,2.62501 -2.55208,6.27084 -0.80209,3.57292 -0.58334,7.65625 z"
       style="font-size:74.6667px;font-family:'KG Inimitable Original';-inkscape-font-specification:'KG Inimitable Original, Normal'"
       id="path19559" /><path
       d="m 219.4317,359.21583 q 1.60417,0.0729 2.625,-1.16666 1.09375,-1.23959 1.67708,-3.35417 0.58334,-2.11459 0.80209,-4.88542 0.21875,-2.84375 0.21875,-5.90625 0.0729,-6.63542 0,-13.48959 -0.0729,-6.85417 -0.51042,-13.78126 -0.0729,-0.58333 0.875,-0.94792 1.02083,-0.36458 2.47917,-0.51041 1.45833,-0.14584 3.13542,-0.0729 1.75,0 3.20833,0.21875 1.53125,0.21875 2.55209,0.58333 1.02083,0.36459 1.09375,0.80209 0.80208,6.92708 1.02083,14.07292 0.29167,7.07292 0,14.43751 -0.0729,2.47916 -0.29167,5.54167 -0.21875,3.0625 -0.875,6.19792 -0.65625,3.13541 -1.96875,6.125 -1.23958,2.91667 -3.5,5.17708 -2.26042,2.26042 -5.61459,3.57292 -3.35416,1.3125 -8.16667,1.16667 -4.8125,-0.14583 -8.3125,-1.45833 -3.5,-1.38542 -5.83334,-4.66667 -2.33333,-3.28125 -3.64583,-8.75001 -1.23959,-5.54167 -1.53125,-14 -0.29167,-6.85417 -0.29167,-13.78126 0.0729,-7 0.65625,-14.65626 0,-0.29166 1.02084,-0.4375 1.09375,-0.21875 2.625,-0.29166 1.60416,-0.0729 3.35416,0 1.82292,0 3.35417,0.14583 1.60417,0.14583 2.625,0.51042 1.02084,0.29166 1.02084,0.72916 0,7.00001 -0.21875,13.92709 -0.14584,6.92709 0.0729,14.29168 0.0729,2.98958 0.4375,5.6875 0.36459,2.625 1.09376,4.59375 0.72916,1.96875 1.89583,3.13542 1.16667,1.16667 2.91667,1.23958 z"
       style="font-size:74.6667px;font-family:'KG Inimitable Original';-inkscape-font-specification:'KG Inimitable Original, Normal'"
       id="path19561" /></g><path
     style="opacity:0.978673;fill:#a3557d;fill-opacity:1;stroke-width:1.19288"
     d="m 273.73241,248.38833 c 0.0419,-3.32564 2.22878,2.12166 4.4591,-4.53058 1.90433,-5.67989 -8.44337,-28.46712 0.9569,-40.98588 9.40027,-12.51876 56.37639,-13.6381 69.97722,0 14.60689,14.64693 8.72155,36.12511 -4.73516,44.04248 -13.45672,7.91737 -43.68076,9.57747 -70.65806,1.47398 z"
     id="path4103"
     sodipodi:nodetypes="cszszc" /><g
     aria-label="th"
     transform="matrix(1.1179565,0,0,1.1179565,187.1148,-142.58005)"
     id="text234-6"
     style="font-size:14.6667px;-inkscape-font-specification:sans-serif;white-space:pre;shape-inside:url(#rect236-3);display:inline;fill:#a3557d"><path
       d="m 94.682927,309.72179 q -0.04156,-0.20781 0.540315,-0.3325 0.581878,-0.12469 1.496257,-0.20781 0.91438,-0.0831 1.99501,-0.0831 1.122192,0 2.036571,0.0831 0.95594,0.0416 1.57938,0.20781 0.62344,0.12469 0.66501,0.3325 0.0416,3.24189 0.0416,7.60598 0.0416,4.32252 0.0831,8.89441 0.0416,4.5719 0.0416,8.89442 0.0416,4.32252 0.0831,7.56441 -0.0831,0.16625 -0.74813,0.29094 -0.62344,0.0831 -1.53782,0.12469 -0.91438,0.0831 -1.995005,0.0831 -1.039067,0 -1.953447,-0.0831 -0.914379,-0.0831 -1.537819,-0.24938 -0.623441,-0.16625 -0.623441,-0.41563 z M 109.313,324.89218 q 0.24937,0 0.41562,0.62344 0.16625,0.58187 0.24938,1.49625 0.0831,0.91438 0.0831,1.99501 0.0416,1.03907 -0.0416,1.99501 -0.0416,0.91438 -0.16625,1.57938 -0.0831,0.62345 -0.24938,0.70657 -3.24189,0 -5.73565,-0.0416 -2.49376,-0.0416 -4.862832,-0.0416 -2.369074,-0.0416 -4.904398,-0.0831 -2.493762,-0.0416 -5.735652,-0.0416 -0.207814,0 -0.374065,-0.62344 -0.124688,-0.66501 -0.207813,-1.57939 -0.04156,-0.95594 -0.04156,-2.03657 0,-1.12219 0.04156,-2.03657 0.08313,-0.91438 0.207813,-1.49626 0.124688,-0.58187 0.332502,-0.54031 z"
       style="font-size:42.5602px;font-family:'KG Inimitable Original';-inkscape-font-specification:'KG Inimitable Original, Normal';fill:#ffffff"
       id="path19564" /><path
       d="m 111.93145,309.97117 q 0,-0.20781 0.58187,-0.37407 0.62344,-0.16625 1.49626,-0.24937 0.91438,-0.0831 1.95345,-0.0831 1.08063,0 1.95344,0.0416 0.91438,0.0416 1.49626,0.16625 0.62344,0.12468 0.62344,0.3325 l 0.0416,9.55942 q 1.49626,-1.12219 3.15877,-1.53782 1.70407,-0.45719 3.1172,-0.41563 1.53782,0.0416 2.86783,0.54032 1.37157,0.49875 2.4522,1.62094 1.12219,1.08063 1.91188,2.82626 0.83125,1.70408 1.28844,4.19784 0.29094,1.57938 0.49876,3.61595 0.20781,1.99501 0.29093,4.11471 0.12469,2.1197 0.12469,4.15627 0.0416,2.03657 -0.0831,3.61595 -0.0416,0.29094 -0.66501,0.49875 -0.62344,0.20782 -1.53782,0.33251 -0.91438,0.0831 -1.99501,0.12468 -1.08063,0 -1.995,-0.0831 -0.91438,-0.12469 -1.53782,-0.3325 -0.58188,-0.24938 -0.58188,-0.62344 -0.12469,-3.74065 -0.24938,-6.31753 -0.12469,-2.61845 -0.29094,-4.36409 -0.16625,-1.74563 -0.41562,-2.74313 -0.20782,-0.99751 -0.49876,-1.49626 -0.29094,-0.49875 -0.70656,-0.62344 -0.37407,-0.12469 -0.87282,-0.16625 -1.37157,-0.0831 -2.53532,0.74813 -1.1222,0.83125 -1.70407,2.82626 0,1.66251 0,2.7847 0,1.12219 0,1.95345 0,0.83125 -0.0416,1.53782 0,0.665 -0.0416,1.49625 0,0.83126 0,1.95345 0,1.08063 0,2.70158 -0.0831,0.24937 -0.70657,0.41562 -0.58187,0.16625 -1.45469,0.24938 -0.87282,0.0416 -1.91188,0.0416 -0.99751,0 -1.87032,-0.0831 -0.83126,-0.12469 -1.4547,-0.24938 -0.58188,-0.16625 -0.58188,-0.37406 z"
       style="font-size:42.5602px;font-family:'KG Inimitable Original';-inkscape-font-specification:'KG Inimitable Original, Normal';fill:#ffffff"
       id="path19566" /></g><g
     aria-label="CARE"
     id="text2834"
     style="font-size:118.361px;font-family:'KG Inimitable Original';-inkscape-font-specification:'KG Inimitable Original, Normal';fill:#fec046;stroke-width:1.58518"><path
       d="m 403.99314,224.44991 q 0.89446,-1.7076 2.43943,-2.2768 1.62629,-0.65052 3.4152,-0.48789 1.87024,0.16263 3.74047,0.97577 1.87023,0.81315 3.25257,1.95155 1.38234,1.1384 2.03286,2.52074 0.73183,1.30103 0.32526,2.52075 -1.87023,5.44806 -5.12281,8.86326 -3.25257,3.33389 -7.15566,5.20412 -3.90309,1.78892 -8.21275,2.35812 -4.22835,0.5692 -8.13144,0.32526 -4.79754,-0.24395 -9.43246,-2.11418 -4.63492,-1.95154 -8.29407,-5.61069 -3.65914,-3.65914 -6.01726,-9.10721 -2.35812,-5.44806 -2.52074,-12.92898 0.16262,-10.00166 2.68337,-16.9947 2.52074,-6.99303 6.74909,-11.38401 4.30966,-4.47229 10.00167,-6.50515 5.77332,-2.03286 12.52241,-1.95154 5.93595,0.0813 9.92035,2.52074 3.9844,2.35812 6.42383,5.93595 2.43943,3.57783 3.57783,7.88749 1.13841,4.30966 1.54498,8.13144 0.0813,1.21971 -1.1384,2.19549 -1.1384,0.89445 -3.00863,1.46366 -1.87023,0.5692 -4.14704,0.81314 -2.19548,0.24394 -4.06571,0.0813 -1.87023,-0.16263 -3.08995,-0.65051 -1.21972,-0.5692 -1.05709,-1.46366 0.32526,-2.11417 -0.24394,-4.14703 -0.48789,-2.03286 -1.46366,-3.57783 -0.97577,-1.54498 -2.2768,-2.43943 -1.21972,-0.97578 -2.35812,-0.97578 -3.4152,0.0813 -6.01726,1.95155 -2.60206,1.87023 -4.30966,4.96017 -1.7076,3.00863 -2.60206,6.91172 -0.81314,3.90309 -0.65051,8.13144 0.0813,2.92732 1.05708,5.44806 0.97578,2.43943 2.52075,4.30966 1.62628,1.87023 3.65914,2.92732 2.11418,0.97577 4.47229,0.97577 1.46366,0 2.84601,-0.0813 1.38234,-0.0813 2.68337,-0.65052 1.38234,-0.65051 2.68337,-1.95154 1.38235,-1.38235 2.76469,-4.06572 z"
       style="font-size:83.2659px"
       id="path19569" /><path
       d="m 480.34732,243.39615 q 0.24394,0.97578 -0.81314,1.78892 -0.97577,0.73183 -2.68338,1.21972 -1.62628,0.40657 -3.74046,0.48788 -2.11417,0.16263 -3.9844,-0.0813 -1.87023,-0.16263 -3.33389,-0.65052 -1.38234,-0.5692 -1.7076,-1.54497 -0.65051,-1.87023 -1.21971,-3.74046 -0.48789,-1.87023 -0.89446,-3.82178 H 438.3078 q -0.40657,1.87023 -0.89446,3.74046 -0.48788,1.87023 -1.05708,3.82178 -0.32526,0.89446 -1.62629,1.46366 -1.30103,0.5692 -3.08995,0.81314 -1.7076,0.24394 -3.74046,0.0813 -1.95154,-0.0813 -3.57783,-0.5692 -1.54497,-0.48789 -2.52074,-1.38235 -0.89446,-0.89446 -0.5692,-2.19549 l 16.01892,-57.89582 q 0.16263,-1.62628 2.11418,-2.68337 2.03286,-1.05709 4.87886,-1.54497 2.92731,-0.48789 6.2612,-0.48789 3.41521,0 6.26121,0.40657 2.92732,0.40657 4.87886,1.21972 2.03286,0.81314 2.2768,1.95154 z M 442.2922,221.44128 h 15.61236 l -7.72486,-26.0206 z"
       style="font-size:83.2659px"
       id="path19571" /><path
       d="m 487.0151,182.81696 q 0,-0.97577 1.21971,-1.54497 1.21972,-0.5692 3.00863,-0.81315 1.87023,-0.32525 3.90309,-0.24394 2.11417,0 3.90309,0.24394 1.87023,0.24395 3.00863,0.73183 1.21972,0.48789 1.21972,1.05709 v 1.87023 q 4.22834,-2.76469 9.35115,-3.25258 5.20412,-0.5692 9.67641,1.21972 4.5536,1.7076 7.56223,5.77332 3.08995,4.06572 3.08995,10.48955 0,2.92732 -0.32526,6.01726 -0.32526,3.00863 -1.87023,6.26121 -1.46366,3.25257 -4.55361,6.66778 -3.00863,3.33388 -8.45669,6.91172 2.11418,1.38234 3.98441,2.68337 1.95154,1.30103 3.74046,2.60206 1.87023,1.30103 3.65914,2.68337 1.87023,1.38235 3.90309,2.92732 0.5692,0.40657 0.24394,1.62629 -0.24394,1.1384 -0.97577,2.60206 -0.73183,1.46365 -1.87023,3.00863 -1.05709,1.54497 -2.2768,2.68337 -1.21972,1.05709 -2.43943,1.46366 -1.1384,0.48789 -2.03286,-0.16263 -3.17126,-2.35812 -6.42383,-4.79755 -3.25258,-2.43943 -6.1799,-4.5536 -2.846,-2.19549 -5.1228,-3.9844 -2.2768,-1.78892 -3.49652,-2.92732 0,3.08995 0,6.58646 0.0813,3.49652 0.0813,6.58647 0.0813,1.05708 -1.1384,1.78891 -1.1384,0.73183 -3.00863,1.1384 -1.87023,0.40657 -4.14704,0.48789 -2.19548,0.0813 -4.06571,-0.24394 -1.87023,-0.32526 -3.17126,-0.97578 -1.21972,-0.73183 -1.21972,-1.87023 z m 15.77498,33.82677 q 1.7076,-0.5692 4.5536,-1.87023 2.84601,-1.38234 5.44807,-3.4152 2.60206,-2.11418 4.14703,-5.04149 1.62629,-2.92732 0.81314,-6.74909 -0.40657,-1.95155 -2.2768,-2.68338 -1.78892,-0.73183 -4.14703,-0.40657 -2.35812,0.24394 -4.79755,1.46366 -2.35812,1.21971 -3.90309,3.08994 z"
       style="font-size:83.2659px"
       id="path19573" /><path
       d="m 538.81234,184.68719 q 0,-1.54497 1.7076,-2.2768 1.78892,-0.73183 4.14704,-0.89446 2.35811,-0.24394 4.87886,-0.16263 2.52074,0.0813 4.14703,0.0813 l 27.40294,0.16262 q 0.81314,0 1.30103,1.13841 0.5692,1.05708 0.73183,2.68337 0.24394,1.54497 0.16262,3.49652 -0.0813,1.87023 -0.40657,3.49651 -0.24394,1.54498 -0.73183,2.60206 -0.48788,1.05709 -1.1384,0.97577 -1.21971,-0.0813 -3.33389,-0.16262 -2.11417,-0.0813 -4.71623,-0.0813 -2.60206,0 -5.36675,0.0813 -2.76468,0 -5.36674,0 -2.60206,0 -4.79755,0.0813 -2.19549,0 -3.49652,0 0,2.43943 0,3.57783 0,1.1384 0,1.7076 0.0813,0.48789 0,0.73183 0,0.24395 0,0.81315 0.0813,0.48788 0.0813,1.7076 0,1.1384 0,3.57783 1.95154,0 4.87886,0.0813 2.92731,0.0813 6.01726,0.16263 3.08995,0 6.01726,0.0813 3.00863,0 4.96018,-0.16263 0.65051,-0.0813 1.05708,1.05708 0.48789,1.05709 0.73183,2.68338 0.24395,1.62629 0.24395,3.57783 0,1.87023 -0.24395,3.49652 -0.24394,1.62628 -0.73183,2.76469 -0.48788,1.05708 -1.30103,1.05708 h -21.62961 q 0,1.95155 0,2.76469 0.0813,0.81314 0.0813,1.1384 0,0.24394 0,0.32526 0,0 0,0.32526 0,0.32525 0,1.21971 0.0813,0.81314 0.0813,2.76469 2.43944,0 6.01727,0 3.57783,0 7.3996,0 3.82178,0 7.39961,0.0813 3.57783,0 6.01726,0.0813 0.65052,0 1.1384,1.1384 0.48789,1.1384 0.73183,2.76469 0.24395,1.62628 0.24395,3.57783 0,1.95154 -0.24395,3.57783 -0.24394,1.62629 -0.81314,2.76469 -0.48789,1.1384 -1.30103,1.1384 -2.11417,0.0813 -6.09858,0.0813 -3.90309,0 -8.29406,-0.0813 -4.30966,0 -8.29407,-0.0813 -3.9844,0 -6.09857,0 -2.11418,0 -4.39098,0 -2.2768,0.0813 -4.14703,0 -1.87023,-0.16263 -3.08995,-0.65052 -1.21971,-0.48789 -1.21971,-1.46366 z"
       style="font-size:83.2659px"
       id="path19575" /></g><path
     style="opacity:0.274882;fill:#a3557d;fill-opacity:1;stroke-width:3.0211"
     d="m 94.964584,184.29031 c -0.44485,-4.06349 -16.41242,-26.80082 -16.43521,-36.52243 -0.0356,-15.17193 29.893126,-63.085186 -2.42346,-103.801448 -32.31659,-40.7162764 -145.070853,-36.6825195 -177.225394,0 -27.0909,30.905822 -17.68885,93.598118 10.622344,111.542638 28.311194,17.94452 118.69175,11.77299 142.5819,7.19583 23.89014,-4.57717 39.37301,23.01925 42.87982,21.58541 z"
     id="path4103-2-3"
     sodipodi:nodetypes="cszszzc" /><path
     style="opacity:0.274882;fill:#a3557d;fill-opacity:1;stroke-width:2.5202"
     d="m 493.70745,177.13942 c 0.37109,-3.38976 13.69124,-22.35724 13.71025,-30.46701 0.0297,-12.65644 -24.93685,-52.62568 2.02165,-86.591195 26.9585,-33.965521 121.01812,-30.60056 147.84144,0 22.59923,25.781641 14.75604,78.079575 -8.86116,93.048895 -23.6172,14.96932 -99.01267,9.82103 -118.94183,6.00276 -19.92916,-3.81827 -32.84497,19.20266 -35.77035,18.00655 z"
     id="path4103-2-3-9"
     sodipodi:nodetypes="cszszzc" /><path
     style="opacity:0.83649289;fill:#fdc244;fill-opacity:0.63529414;stroke-width:1.59559"
     d="m 369.02637,179.74856 c 0.23494,-2.14613 8.6682,-14.15482 8.68024,-19.28928 0.0188,-8.01305 -15.78803,-33.31839 1.27994,-54.82264 17.06798,-21.504262 76.61903,-19.373837 93.60142,0 14.30803,16.32288 9.34234,49.43376 -5.61018,58.91114 -14.95253,9.47738 -62.68693,6.21789 -75.30449,3.80047 -12.61755,-2.41743 -20.79481,12.15759 -22.64693,11.40031 z"
     id="path4103-2-3-9-2"
     sodipodi:nodetypes="cszszzc" /><path
     style="opacity:0.33649289;fill:#a3557d;fill-opacity:1;stroke-width:1.59559"
     d="m 209.74421,179.8967 c -0.23494,-2.14613 -8.6682,-14.15482 -8.68025,-19.28928 -0.0188,-8.01305 15.78803,-33.31839 -1.27994,-54.82264 -17.06797,-21.504255 -76.61903,-19.37383 -93.60142,0 -14.308033,16.32288 -9.342343,49.43376 5.61018,58.91114 14.95254,9.47738 62.68693,6.21789 75.30449,3.80047 12.61755,-2.41743 20.79481,12.15759 22.64694,11.40031 z"
     id="path4103-2-3-9-2-8"
     sodipodi:nodetypes="cszszzc" /><path
     style="opacity:0.473934;fill:#38955c;fill-opacity:0.501961;stroke-width:3.11458"
     d="m 340.70717,181.49914 c -0.4586,-4.18925 -16.92033,-27.63022 -16.94386,-37.65269 -0.0367,-15.64148 30.81826,-65.037518 -2.49843,-107.013818 -33.31671,-41.976348 -149.56041,-37.8177562 -182.71007,0 -27.92928,31.862267 -18.23624,96.494718 10.9511,114.994568 29.18736,18.49987 122.36492,12.13733 146.99441,7.41852 24.62946,-4.71881 40.59149,23.73164 44.20685,22.25342 z"
     id="path4103-2-3-9-2-8-6"
     sodipodi:nodetypes="cszszzc" /><path
     style="opacity:0.900474;fill:#fec145;fill-opacity:0.705882;stroke-width:4.6336"
     d="m 710.62617,259.47195 c 0.68226,-6.23237 25.1724,-41.10563 25.20745,-56.01611 0.0549,-23.26989 -45.84849,-96.75665 3.71694,-159.204999 49.56534,-62.448439 222.50165,-56.261667 271.81844,0 41.5506,47.401653 27.1303,143.555689 -16.29185,171.078009 -43.42213,27.52233 -182.04287,18.05677 -218.68434,11.03657 -36.64129,-7.02022 -60.38808,35.30566 -65.76664,33.10653 z"
     id="path4103-2-3-9-2-2"
     sodipodi:nodetypes="cszszzc" /><path
     style="opacity:0.900474;fill:#36965c;fill-opacity:0.239216;stroke-width:4.6336"
     d="m 777.99911,283.54603 c 0.68226,-6.23237 25.1724,-41.10563 25.20745,-56.01611 0.0549,-23.26989 -45.84849,-96.75665 3.71694,-159.204999 49.56534,-62.4484395 222.5016,-56.26167 271.8184,0 41.5506,47.401649 27.1303,143.555689 -16.2918,171.078009 -43.4221,27.52233 -182.04288,18.05677 -218.68435,11.03657 -36.64129,-7.02022 -60.38808,35.30566 -65.76664,33.10653 z"
     id="path4103-2-3-9-2-2-1"
     sodipodi:nodetypes="cszszzc" /></svg>
